<svg xmlns="http://www.w3.org/2000/svg" width="40" height="40" viewBox="0 0 40 40" fill="none" >
<path d="M28.1818 38V31.0764H34.7273C35.5952 31.0764 36.4278 30.7845 37.0414 30.2652C37.6551 29.7457 38 29.0414 38 28.3069V17.2291C37.9993 14.522 37.1461 11.864 35.5284 9.52867C33.9107 7.19332 31.5864 5.26501 28.7955 3.94225C26.0043 2.61949 22.8471 1.95007 19.6487 2.0029C16.4503 2.05573 13.3264 2.82891 10.5984 4.24284C7.87042 5.65675 5.63705 7.66036 4.12812 10.0473C2.61923 12.4343 1.88935 15.1185 2.01358 17.8235C2.13785 20.5285 3.11175 23.1566 4.83503 25.4373C6.55832 27.718 8.96875 29.5687 11.8182 30.7995V38" stroke="black" stroke-width="3" stroke-linecap="round" stroke-linejoin="round"/>
<path d="M15.091 9.78385C10.5762 11.9896 8.6979 16.5755 10.3914 20.5871C10.7824 21.5133 11.9639 21.9791 13.0874 21.7272C18.7722 20.4528 24.5603 17.0055 28.0767 14.3178C29.0083 13.6057 29.2012 12.4156 28.3713 11.6185C25.095 8.47169 19.5483 7.60618 15.091 9.78385Z" stroke="black" stroke-width="3" stroke-linecap="round" stroke-linejoin="round"/>
</svg>
